<svg width="100" height="120" viewBox="0 0 100 120" xmlns="http://www.w3.org/2000/svg">

    <defs>
      <marker
         style="overflow:visible"
         id="Arrow1Sstart"
         refX="0.0"
         refY="0.0"
         orient="auto">
           <path
             transform="scale(0.2) translate(6)"
             style="fill-rule: evenodd; stroke-width: 1pt; fill: context-stroke; stroke: context-stroke"
             d="M 0 0 L 5 -5 L -12.5 0 L 5 5 L 0 0 z"
             />
        </marker>
    </defs>
    
    <g transform="translate(50,60) scale(1,-1)" >
    
    
    <g transform="translate(0,0) rotate(0)" >
    <g transform="translate(0,0) rotate(0)" >
    <line x1="20" stroke="red" stroke-width="2" marker-start="url(#Arrow1Sstart)" />
    <line y1="20" stroke="green" stroke-width="2" marker-start="url(#Arrow1Sstart)" />
    <text x="5" y="-10" font-size="10" transform="scale(1,-1)" >{A}</text>
    </g>
    </g>
    
    
    <g transform="translate(0,0) rotate(0)" >
    <g transform="translate(0,20) rotate(90)" >
    <line x1="20" stroke="red" stroke-width="2" marker-start="url(#Arrow1Sstart)" />
    <line y1="20" stroke="green" stroke-width="2" marker-start="url(#Arrow1Sstart)" />
    <text x="5" y="-10" font-size="10" transform="scale(1,-1)" >{B}</text>
    </g>
    </g>
    
    
    <g transform="translate(0,0) rotate(0)" >
    <g transform="translate(1.22465e-15,40) rotate(180)" >
    <line x1="20" stroke="red" stroke-width="2" marker-start="url(#Arrow1Sstart)" />
    <line y1="20" stroke="green" stroke-width="2" marker-start="url(#Arrow1Sstart)" />
    <text x="5" y="-10" font-size="10" transform="scale(1,-1)" >{C}</text>
    </g>
    </g>
    
    
    <g transform="translate(0,0) rotate(0)" >
      <circle cx="20" cy="20" r="3" stroke="purple" fill="purple" stroke-width="1" />
    </g>
    
    
    <g transform="translate(0,0) rotate(0)" >
      <circle cx="0" cy="-20" r="3" stroke="brown" fill="brown" stroke-width="1" />
    </g>
    
    
    <g transform="translate(0,0) rotate(0)" >
      <circle cx="-20" cy="20" r="3" stroke="orange" fill="orange" stroke-width="1" />
    </g>
    
    
    <g transform="translate(0,20) rotate(90)" >
      <line x1="14.1421" y1="14.1421" stroke="brown" stroke-width="2" marker-start="url(#Arrow1Sstart)" />
    </g>
    
    
    <g transform="translate(0,0) rotate(0)" >
      <line x1="20" y1="-20" stroke="purple" stroke-width="2" marker-start="url(#Arrow1Sstart)" />
    </g>
    
    
    <g transform="translate(0,0) rotate(0)" >
      <line x1="-20" y1="20" stroke="orange" stroke-width="2" marker-start="url(#Arrow1Sstart)" />
    </g>
    </g>
    
    </svg>
    